<?xml version="1.0" encoding="UTF-8"?>
<svg id="Layer_2" data-name="Layer 2" xmlns="http://www.w3.org/2000/svg" viewBox="0 0 251.61121189876576 120.080451965332031">
  <g id="Layer_1-2" data-name="Layer 1">
    <g>
      <g>
        <g>
          <path d="M60.039947509765625,118.830680847167969C27.622955322265625,118.830680847167969,1.249908447265625,92.457633972167969,1.249908447265625,60.040641784667969S27.622955322265625,1.250114440917969,60.039947509765625,1.250114440917969c29.5400390625,0,54.33984375,21.77978515625,58.251953125,50.89208984375h-13.6513671875c-3.78515625-21.3916015625-22.7685546875-37.39208984375-44.6005859375-37.39208984375-24.97265625,0-45.2900390625,20.3173828125-45.2900390625,45.29052734375s20.3173828125,45.2900390625,45.2900390625,45.2900390625c21.673828125,0,40.6337890625-15.87060546875,44.541015625-37.08837890625h13.6650390625c-4.0478515625,28.9384765625-28.826171875,50.58837890625-58.2060546875,50.58837890625Z" style="fill: #1447E6;"/>
          <path d="M60.040252685546875,2.5c14.230194091796875,0,27.89764404296875,5.258583068847656,38.48468017578125,14.807060241699219,9.80902099609375,8.846794128417969,16.2467041015625,20.687179565429688,18.31829833984375,33.585128784179688h-11.167236328125c-4.30767822265625-21.463409423828125-23.553863525390625-37.392189025878906-45.6357421875-37.392189025878906-25.662384033203125,0-46.540252685546875,20.878044128417969-46.540252685546875,46.540626525878906,0,25.662139892578125,20.87786865234375,46.539825439453125,46.540252685546875,46.539825439453125,21.922698974609375,0,41.14190673828125-15.79937744140625,45.569091796875-37.0882568359375h11.181396484375c-4.56097412109375,27.607070922851562-28.4786376953125,48.0882568359375-56.75048828125,48.0882568359375-31.727783203125,0-57.540252685546875-25.812271118164062-57.540252685546875-57.539825439453125C2.5,28.3126220703125,28.312469482421875,2.5,60.040252685546875,2.5m0-2.5C26.933990478515625,0,0,26.934371948242188,0,60.040626525878906c0,33.106246948242188,26.933990478515625,60.039825439453125,60.040252685546875,60.039825439453125,30.7542724609375,0,56.16717529296875-23.246612548828125,59.6253662109375-53.0882568359375h-16.1385498046875c-3.3436279296875,20.991592407226562-21.568328857421875,37.0882568359375-43.48681640625,37.0882568359375-24.28399658203125,0-44.040252685546875-19.756240844726562-44.040252685546875-44.039825439453125,0-24.284378051757812,19.756256103515625-44.040626525878906,44.040252685546875-44.040626525878906,22.024444580078125,0,40.32366943359375,16.251205444335938,43.53857421875,37.392189025878906h16.12542724609375C116.384307861328125,23.404190063476562,90.899017333984375,0,60.040252685546875,0h0Z"/>
        </g>
        <path d="M81.780820175154076,66.992181588635503c-2.947705078124272,9.197216796875182-11.577343749999272,15.875-21.740576171872817,15.875-12.586718750000728,0-22.826562500002183-10.239843749999636-22.826562500002183-22.826562500000364,0-12.586718749999818,10.239843750001455-22.826562499999454,22.826562500002183-22.826562499999454,10.274707031248909,0,18.982714843748909,6.824609374999454,21.836181640625,16.178124999999454h16.409082031248545c-3.1640625-18.251171874999272-19.103759765625-32.178124999999454-38.245263671873545-32.178124999999454-21.408984375000728,0-38.826562500002183,17.417187500000182-38.826562500002183,38.826562499999454,0,21.409375000000182,17.417578125001455,38.826562500000364,38.826562500002183,38.826562500000364,19.035351562499272,0,34.903710937498545-13.773144531250182,38.190966796873909-31.875h-16.450390625001091Z"/>
      </g>
      <g>
        <path d="M148.445425202444312,108.770810817157326c-12.963281250000364,0-22.213281250000364-8.857812499999454-22.213281250000364-21.181249999999636,0-12.32421875,9.25-21.181249999999636,22.213281250000364-21.181249999999636,12.9296875,0,22.146093749999636,8.823437499999272,22.146093749999636,21.181249999999636,0,12.356249999999818-9.216406249999636,21.180468749999818-22.146093749999636,21.180468749999818v.000781249999818Zm0-10.336718749999818c6.137500000000728,0,10.579687499999636-4.533593749999454,10.579687499999636-10.84375,0-6.310156249999636-4.442187499998909-10.844531249999818-10.579687499999636-10.844531249999818-6.138281250001455,0-10.646875000000364,4.567187499999818-10.646875000000364,10.84375,0,6.278124999999818,4.508593749998909,10.84375,10.646875000000364,10.84375v.000781249999818Z"/>
        <path d="M191.400112702443948,95.412998317157871h-4.02734375v12.337499999999636h-11.109375v-40.323437500000182h17.477343749998909c8.692968750001455,0,14.994531250002183,5.840625000000728,14.994531250002183,14.270312500000728,0,4.948437499999272-2.417187500001091,9.003124999999272-6.400781250002183,11.387499999999818l8.007031250001091,14.665624999999636h-12.399218749998909l-6.542187500001091-12.337499999999636Zm-4.02734375-9.357812500000364h5.07421875c3.10546875,0,4.892968750000364-1.870312500000182,4.892968750000364-4.390625s-1.787500000000364-4.365624999999454-4.892968750000364-4.365624999999454h-5.07421875v8.756249999999454Z"/>
        <path d="M247.307925202443585,81.99581081715769c0,8.456250000000182-6.367968750000728,14.617968749999818-14.939062499999636,14.617968749999818h-6.034375000001091v11.13671875h-11.133593749998909v-40.323437500000182h17.16796875c8.571093749998909,0,14.939062499999636,6.112500000000182,14.939062499999636,14.568750000000364Zm-11.419531249999636,.024999999999636c0-2.866406249999272-1.927343749999636-4.892968749999454-4.8515625-4.892968749999454h-4.702343750001091v9.785937499999818h4.702343750001091c2.924218750000364,0,4.8515625-2.02734375,4.8515625-4.892968750000364Z"/>
      </g>
      <g>
        <path d="M154.662612702442857,46.990732692154779h-14.29296875l-2.233593749999272,6.550000000000182h-11.903906249999636l15.839062500001091-40.323437500000182h10.859375l16.186718749999272,40.323437500000182h-12.232812500000364l-2.221875000001091-6.550000000000182Zm-7.168749999998909-21.1875l-4.418749999998909,12.495312500000182h8.876562499997817l-4.457812499998909-12.495312500000182Z"/>
        <path d="M188.132143952443585,41.202451442154597h-4.02734375v12.338281250000364h-11.109375V13.217295192154779h17.477343750000728c8.692968749999636,0,14.994531249998545,5.840624999999818,14.994531249998545,14.270312499999818,0,4.948437500000182-2.417187499999272,9.003125000000182-6.400781249998545,11.387499999999818l8.007031249999272,14.665625000000546h-12.399218750000728l-6.542187499999272-12.338281250000364Zm-4.02734375-9.357812499999454h5.07421875c3.10546875,0,4.892968750000364-1.869531250000364,4.892968750000364-4.390625,0-2.520312500000728-1.787500000000364-4.364843750000546-4.892968750000364-4.364843750000546h-5.07421875v8.755468750000546Z"/>
        <path d="M249.068862702442857,33.345420192154961c0,11.767187499999636-8.640625,20.1953125-20.815624999999272,20.1953125h-16.3203125V13.217295192154779h16.3203125c12.208593750001455,0,20.815624999999272,8.345312499999636,20.815624999999272,20.128125000000182Zm-11.388281249997817,0c0-5.982031250000546-3.979687500001091-9.954687500000546-9.951562500002183-9.954687500000546h-4.638281249997817v19.9765625h4.638281249997817c5.971875000001091,0,9.951562500002183-4.072656249999454,9.951562500002183-10.021874999999454Z"/>
      </g>
      <path d="M241.217461898766487,97.797763942157871h10.393749999999272v9.953515624999454h-10.393749999999272v-9.953515624999454Z"/>
    </g>
  </g>
</svg>