<?xml version="1.0" encoding="UTF-8"?>
<svg id="Layer_2" data-name="Layer 2" xmlns="http://www.w3.org/2000/svg" xmlns:xlink="http://www.w3.org/1999/xlink" viewBox="0 0 234 268">
  <defs>
    <filter id="drop-shadow-1" filterUnits="userSpaceOnUse">
      <feOffset dx="2.834645669291338" dy="2.834645669291338"/>
      <feGaussianBlur result="blur" stdDeviation="5"/>
      <feFlood flood-color="#000" flood-opacity=".42"/>
      <feComposite in2="blur" operator="in"/>
      <feComposite in="SourceGraphic"/>
    </filter>
  </defs>
  <g id="Layer_1-2" data-name="Layer 1">
    <g>
      <path d="M200.543278778259264,51.940879722486898l-44.25445556640625-11.34991455078125v-9.787353515625c0-6.5999755859375-5.4000244140625-12-12-12H31.105351532164605c-6.5999755859375,0-12,5.4000244140625-12,12V204.322349449049398c0,6.5999755859375,5.4000244140625,12,12,12h15.30712890625l105.061340332032159,26.945068359374091c6.39312744140625,1.6396484375,12.96533203125-2.24957275390625,14.60498046875-8.64263916015625l43.10711669921875-168.078979492186591c1.6396484375-6.39306640625-2.24957275390625-12.96533203125-8.64263916015625-14.60491943359375Z" style="fill: #fff; filter: url(#drop-shadow-1); stroke: #fff; stroke-miterlimit: 10; stroke-width: 12px;"/>
      <rect x="52.705956056448116" y="34.762851453935554" width="137.183437415145022" height="197.518745537547261" rx="11.999999999998924" ry="11.999999999998924" transform="translate(36.973508852158474 -25.947977720494919) rotate(14.384584923299924)" style="fill: #1447E6; stroke: #000; stroke-miterlimit: 10; stroke-width: 4px;"/>
      <rect x="19.212061508799707" y="18.780737449668777" width="137.183437415146727" height="197.518745537547147" rx="12" ry="12" style="fill: #fff; stroke: #000; stroke-miterlimit: 10; stroke-width: 4px;"/>
      <g>
        <g>
          <path d="M88.052734375,132.27197265625c-27.66455078125,0-50.17138671875-22.5068359375-50.17138671875-50.17138671875S60.38818359375,31.92919921875,88.052734375,31.92919921875c25.14013671875,0,46.2568359375,18.4853515625,49.68408203125,43.2275390625h-11.33642578125c-3.3173828125-18.33154296875-19.61376953125-32.0244140625-38.34765625-32.0244140625-21.4873046875,0-38.96826171875,17.48095703125-38.96826171875,38.96826171875s17.48095703125,38.96826171875,38.96826171875,38.96826171875c18.5986328125,0,34.87353515625-13.58154296875,38.29541015625-31.76416015625h11.34765625c-3.54052734375,24.5947265625-24.638671875,42.96728515625-49.64306640625,42.96728515625Z" style="fill: #1447E6;"/>
          <path d="M88.052703857421875,33.179092407226562c24.028762817382812,0,44.288833618164062,17.320213317871094,48.227691650390625,40.727676391601562h-8.850128173828125c-3.83575439453125-18.402633666992188-20.3939208984375-32.024497985839844-39.3775634765625-32.024497985839844-22.176406860351562,0-40.218215942382812,18.041984558105469-40.218215942382812,40.218559265136719,0,22.176223754882812,18.04180908203125,40.217880249023438,40.218215942382812,40.217880249023438,18.846832275390625,0,35.381210327148438-13.511215209960938,39.318389892578125-31.76422119140625h8.860595703125c-4.048324584960938,23.260787963867188-24.284454345703125,40.4674072265625-48.178985595703125,40.4674072265625-26.975357055664062,0-48.921401977539062-21.945907592773438-48.921401977539062-48.921066284179688,0-26.975540161132812,21.946044921875-48.921737670898438,48.921401977539062-48.921737670898438m0-2.5c-28.35382080078125,0-51.421401977539062,23.067916870117188-51.421401977539062,51.421737670898438,0,28.353805541992188,23.067581176757812,51.421066284179688,51.421401977539062,51.421066284179688,26.339492797851562,0,48.104339599609375-19.909561157226562,51.06610107421875-45.4674072265625h-13.821868896484375c-2.863616943359375,17.978225708007812-18.472152709960938,31.76422119140625-37.244232177734375,31.76422119140625-20.797988891601562,0-37.718215942382812-16.920242309570312-37.718215942382812-37.717880249023438,0-20.79833984375,16.92022705078125-37.718559265136719,37.718215942382812-37.718559265136719,18.862838745117188,0,34.535171508789062,13.918342590332031,37.28857421875,32.024497985839844h13.81060791015625c-2.8433837890625-25.683174133300781-24.670211791992188-45.727676391601562-51.09918212890625-45.727676391601562h0Z"/>
        </g>
        <path d="M106.672402452498318,88.054481598967868c-2.524559215542467,7.876947593636942-9.915405062891296,13.59612867791293-18.619695821402274,13.59612867791293-10.779883323319154,0-19.54978778106306-8.769904457745724-19.54978778106306-19.549787781064879s8.769904457743905-19.549787781061241,19.54978778106306-19.549787781061241c8.799763081873607,0,16.257728105307251,5.84493021977687,18.701577034342336,13.855739796365015h14.053542726506748c-2.709858324092238-15.631198824261446-16.361396913723183-27.558924605598804-32.755119760849084-27.558924605598804-18.335704341787277,0-33.25297259029503,14.916933698097637-33.25297259029503,33.25297259029503,0,18.336038892199213,14.917268248507753,33.252972590296849,33.25297259029503,33.252972590296849,16.302808773105426,0,29.893250094039104-11.795996557249964,32.708617253804732-27.2993134871449h-14.088921432402458Z"/>
      </g>
      <path d="M54.616240757594824,168.277659989747008c-6.570155655883354,0-11.477070761578943-4.863838973771635-11.477070761578943-11.32107661392547,0-6.492367689492312,4.906915105695589-11.356206663262128,11.477070761578943-11.356206663262128,5.656774373104781,0,10.038411598226958,3.733822386742759,10.915826401922459,9.207000430571497h-6.025221676276487c-.741076755075483-2.213611323144505-2.605896874079917-3.65101584187687-4.87764006458201-3.65101584187687-3.056732507246124,0-5.298364226886406,2.457848809015559-5.298364226886406,5.8002220745675,0,3.329408604486161,2.241631719640282,5.751709149290036,5.298364226886406,5.751709149290036,2.395116578054513,0,4.277919936603212-1.560777906284784,4.882658643056857-3.959658418196341h6.082098899014454c-.820537580955715,5.676012257265029-5.228522343084478,9.528607667958568-10.977722203135272,9.528607667958568v.000418214873207Z"/>
      <path d="M80.700302390786419,164.225576084599197h-7.65124110276156l-1.195676322100553,3.505895280921322h-6.372340020920092l8.478888336558157-21.585742458481036h5.813186735631461l8.66499395507708,21.585742458481036h-6.548408482483865l-1.189403099000629-3.505895280921322Zm-3.837539675265361-11.342405572449934l-2.365423322067727,6.688928679832316h4.75175738778853l-2.386334065720803-6.688928679832316Z"/>
      <path d="M98.617045767849959,161.127022090045102h-2.155897670661943v6.604449275475417h-5.947015495012238v-21.585742458481036h9.35588492538227c4.653476892615799,0,8.026798058775967,3.126992605921259,8.026798058775967,7.639112871442194,0,2.64897300600569-1.293956817269645,4.819508197224422-3.426434455039271,6.096318204698036l4.286284234065533,7.850311382340806h-6.63748825044604l-3.502131347064278-6.604449275475417Zm-2.155897670661943-5.009795964469959h2.716305600570195c1.662404120441352,0,2.619279750020723-1.000788191247921,2.619279750020723-2.350367586635912,0-1.348742965641577-.956875629579372-2.336566495825537-2.619279750020723-2.336566495825537h-2.716305600570195v4.686934082461448Z"/>
      <path d="M131.237387652206962,156.921035111611673c0,6.299152418134327-4.625456496123661,10.810436253908847-11.1429170779993,10.810436253908847h-8.736508698370926v-21.585742458481036h8.736508698370926c6.535443821419904,0,11.1429170779993,4.467789488975541,11.1429170779993,10.775306204572189Zm-6.096318204701674,0c0-3.202271283074879-2.13038656340359-5.329312127492813-5.327221053128596-5.329312127492813h-2.482941701394338v10.69417251919549h2.482941701394338c3.196834489725006,0,5.327221053128596-2.180572348170244,5.327221053128596-5.364860391702678Z"/>
      <path d="M54.616240757594824,198.892302428764197c-6.570155655883354,0-11.477070761578943-4.863838973769816-11.477070761578943-11.321076613923651,0-6.492367689494131,4.906915105695589-11.356206663263947,11.477070761578943-11.356206663263947,5.656774373104781,0,10.038411598226958,3.733822386744578,10.915826401922459,9.207000430571497h-6.025221676276487c-.741076755075483-2.213611323142686-2.605896874079917-3.65101584187687-4.87764006458201-3.65101584187687-3.056732507246124,0-5.298364226886406,2.457848809017378-5.298364226886406,5.800222074569319,0,3.329408604486161,2.241631719640282,5.751709149290036,5.298364226886406,5.751709149290036,2.395116578054513,0,4.277919936603212-1.560777906286603,4.882658643056857-3.95965841819816h6.082098899014454c-.820537580955715,5.676012257265029-5.228522343084478,9.528607667958568-10.977722203135272,9.528607667958568v.000418214873207Z"/>
      <path d="M79.199329211348413,198.892302428764197c-6.939439388801475,0-11.891103485915664-4.74172023083338-11.891103485915664-11.33864163859289,0-6.597339622630898,4.95166409711419-11.338641638594709,11.891103485915664-11.338641638594709,6.92145614925721,0,11.855137006830773,4.723318776419546,11.855137006830773,11.338641638594709,0,6.614486432426929-4.933680857573563,11.338223423719683-11.855137006830773,11.338223423719683v.000418214873207Zm0-5.533400985550543c3.285496042813975,0,5.663465811074275-2.426900908405514,5.663465811074275-5.80482243816914s-2.3779697682603-5.804822438170959-5.663465811074275-5.804822438170959c-3.285914257687182,0-5.699432290159166,2.444465933076572-5.699432290159166,5.804404223297752,0,3.360356505092568,2.413518032471984,5.80482243816914,5.699432290159166,5.80482243816914v.000418214873207Z"/>
      <path d="M102.193619362319623,191.74166452906411h-2.155897670661943v6.604449275473598h-5.947015495012238v-21.585742458481036h9.35588492538227c4.653476892617618,0,8.026798058774148,3.126992605923078,8.026798058774148,7.639112871442194,0,2.648973006007509-1.293956817267826,4.819508197224422-3.426434455037452,6.096318204698036l4.286284234063714,7.850311382340806h-6.63748825044604l-3.502131347062459-6.604449275473598Zm-2.155897670661943-5.00979596446814h2.716305600570195c1.662404120443171,0,2.619279750018904-1.000788191251559,2.619279750018904-2.35036758663955,0-1.348742965639758-.956875629575734-2.336566495825537-2.619279750018904-2.336566495825537h-2.716305600570195v4.686934082465086Z"/>
      <path d="M132.121912108741526,184.559242299011203c0,4.526757786077724-3.408869430368213,7.825218489957479-7.997104802787362,7.825218489957479h-3.230291679570655v5.961653015569027h-5.959980156078927v-21.585742458481036h9.190271835649582c4.588235372419149,0,7.997104802787362,3.272531381750014,7.997104802787362,7.79887095295453Zm-6.113046799619042,.013382875937168c0-1.534430369281836-1.031736091856146-2.619279750018904-2.597114361749846-2.619279750018904h-2.51723532098913v5.238559500037809h2.51723532098913c1.565378269893699,0,2.597114361749846-1.085267595608457,2.597114361749846-2.619279750018904Z"/>
      <path d="M131.614617467712378,193.017638106793129h5.563930671283742v5.32847569774458h-5.563930671283742v-5.32847569774458Z"/>
    </g>
  </g>
</svg>